<svg width="78" height="97" viewBox="0 0 78 97" fill="none" xmlns="http://www.w3.org/2000/svg">
<path d="M27.6976 96.8877C29.1546 96.9971 30.1234 95.9385 29.8187 94.4893C29.2914 91.6377 27.0882 89.9073 24.5882 88.7081C24.6898 87.7277 24.4398 86.7433 23.8812 85.9347C21.4398 82.2745 17.514 84.2824 14.9007 78.6808C13.5023 75.5558 12.803 72.337 13.3968 68.88C14.3812 63.4112 16.596 57.653 21.2249 54.278C25.5921 51.2546 30.7015 49.6999 35.7839 48.3366C44.2448 46.1608 53.4089 49.0827 59.7219 54.9889C60.7063 55.9382 61.8274 56.7506 62.8781 57.6334C72.6789 65.3756 76.0341 84.8324 66.3937 93.8564V93.8643C66.1554 94.1455 66.1476 94.5557 66.3781 94.8447C66.8195 95.5283 67.6515 95.1533 68.1086 94.7002C71.3781 91.5947 73.0344 87.2627 73.7102 82.8842C74.9094 74.5092 71.6047 66.4072 68.9407 58.6302V58.6341C69.1047 58.5247 69.2805 58.4388 69.4641 58.3724C70.7688 58.1107 71.5696 57.224 72.2336 56.1732C78.3274 47.0365 78.1086 35.5092 75.0344 25.3212C73.8625 20.7587 71.4992 17.3212 66.4953 16.8485C67.0734 15.8719 67.4758 14.9423 67.3664 13.8719C67.1867 12.1336 66.6242 10.5672 65.3273 9.34068C64.6788 8.72349 64.0109 8.12588 63.3273 7.53988C57.7023 2.89538 60.2218 -1.15542 55.3781 0.301585C54.7765 0.422675 54.4093 0.731275 54.3234 1.36798C53.6789 6.56719 51.339 12.473 45.8625 14.118C39.9875 15.9461 32.9325 13.157 30.4955 7.37189C29.8939 5.92659 29.4486 4.42268 28.9369 2.94218C28.6009 1.61018 28.0853 0.289885 26.4486 0.469485C24.8119 0.649175 22.9408 0.594485 22.515 2.57108C22.1673 4.34838 21.3158 5.96948 19.4955 6.57108C16.6947 7.50858 14.2963 9.34449 13.4252 12.2313C12.4916 14.9383 13.1127 17.0751 15.1088 19.1649C11.3197 20.9657 9.40959 23.9188 7.78069 27.6337C4.51509 35.0751 3.58149 43.2157 1.86659 51.0947C1.10487 54.8955 0.382189 58.6806 0.136089 62.5517C-1.35611 79.5087 9.52621 96.7587 27.6976 96.8877ZM58.8426 20.5007C63.9793 18.1296 69.9796 17.1374 72.6546 23.3523C74.0179 26.6375 74.8851 30.1062 75.2288 33.6453C76.2093 40.9109 75.2679 48.3173 71.3186 54.5983H71.3147C70.5725 55.8874 69.3459 56.8249 67.9045 57.1999C65.967 57.6687 64.1154 56.5515 62.6779 55.3718C57.0607 49.8171 50.1429 46.321 42.1549 46.0202C37.0299 45.9226 32.1549 47.7468 27.3739 49.3483C26.077 49.7624 24.7723 50.3249 23.3739 50.1843C21.4051 50.0085 21.7059 48.0671 22.6864 46.9148C23.9637 45.4343 25.0848 43.6609 27.0184 42.9773C29.0067 42.2117 31.0184 41.4695 33.0536 40.8211C34.913 39.7547 37.0106 39.6219 39.0536 39.3055C46.5224 38.2274 54.2996 38.9422 61.1746 42.1688C62.6668 42.8719 64.0379 43.8641 65.4598 44.704C66.491 45.2274 67.284 43.9891 66.4012 43.2626C65.8817 42.8485 65.3778 42.5321 64.8465 42.1024C67.4715 39.2391 68.3856 34.4227 64.995 30.7624C61.6317 27.1569 58.4519 26.2158 58.8426 20.5007ZM30.0536 21.3484C30.6005 26.7468 34.3817 31.9264 40.1586 32.1494C45.4555 32.4932 49.182 30.3252 52.1856 26.0556C52.6153 25.3212 53.17 24.4853 53.1075 23.5947C52.8184 22.4111 51.7598 23.2627 51.4825 23.9775C49.9903 26.9541 46.9942 29.8213 43.6153 30.2705C37.4356 31.6221 32.4673 27.5557 31.7633 21.3916C35.2477 20.9932 37.0836 19.4385 37.6266 15.9189V15.915C40.8493 16.8056 44.2711 16.665 47.4078 15.5127C48.9781 20.2666 52.3453 21.9697 57.1851 20.8955C57.3687 27.6963 60.3843 27.7666 64.1421 32.1765C66.3999 34.8523 65.4819 39.446 63.0171 41.1101C52.1261 35.7742 39.1221 36.5906 28.0291 40.9265C26.951 41.3366 25.9588 41.8679 24.9275 42.3562C20.1267 44.4187 16.8142 39.4656 17.8572 35.4812C18.533 31.9226 20.8338 29.1687 23.1853 26.5476C24.7556 24.7898 25.2283 22.6687 25.4783 20.3718L30.0536 21.3484ZM2.65561 55.0004C5.33531 43.4224 6.45642 16.3324 23.8706 20.0004C23.687 23.7895 21.4175 25.7621 19.1909 28.4535C15.7807 32.8129 14.2065 38.8875 18.4604 43.2735C19.019 44.0508 19.1167 44.9141 18.9526 45.8321C18.4331 48.7305 17.7807 51.586 16.5776 54.3009C15.9761 55.6759 15.3628 57.0704 15.0034 58.5157C14.3628 61.0704 13.0464 63.3673 12.3823 65.9141C10.3667 73.1485 12.4058 83.5621 20.8432 85.3121C22.019 85.6676 22.8432 86.8238 22.8744 88.1754C22.2729 88.109 21.6947 87.9996 21.0971 87.9527C20.7964 87.9332 20.4956 88.0152 20.4096 88.3512C20.2573 89.1285 21.269 89.1832 21.7846 89.3824C24.2807 90.1363 26.9213 91.441 27.8705 94.0426L27.8666 94.0465C28.0541 94.4293 28.0854 94.8668 27.9565 95.2731C19.7299 95.6286 11.8705 91.2301 7.28447 84.4611C1.17897 75.9338 0.659472 64.9651 2.65167 55.0001L2.65561 55.0004Z" fill="black"/>
<path d="M37.9396 7.65765C39.1935 8.30609 40.7404 8.70845 42.088 9.02875C43.7052 8.89203 44.7169 7.54045 45.838 6.54435C46.1779 6.02091 45.7794 5.00525 44.9904 5.28655C43.7052 5.61077 42.9045 7.61465 41.5334 7.09905C40.8146 6.84905 40.0646 6.68108 39.3342 6.49749C38.7677 6.36077 37.9045 6.09905 37.6545 6.82561C37.5373 7.13811 37.6584 7.48578 37.9396 7.65765Z" fill="black"/>
<path d="M52.7636 76.7628C55.0527 74.8019 57.4277 72.7628 58.5644 69.8956C60.3144 66.5948 60.5644 61.8487 57.4277 59.2586C55.0566 57.3875 51.6386 56.5516 48.8027 57.8758C46.1894 59.075 44.3769 61.1102 42.5293 63.243C39.3301 59.7742 35.9277 55.9578 30.7173 57.618C28.7681 58.2664 26.9282 59.3133 25.979 61.2313C25.3931 62.368 25.1939 63.5829 25.0962 64.8211C24.9868 66.1649 25.4673 67.3836 25.9204 68.6219C26.4673 70.0985 27.0806 71.5555 28.104 72.7469C29.5845 74.3485 31.104 76.0008 32.9048 77.2586C35.9634 79.6688 39.1353 82.0008 42.5337 83.8992C46.0845 81.6453 49.6039 79.5245 52.7636 76.7628Z" fill="black"/>
</svg>
