<svg xmlns="http://www.w3.org/2000/svg" version="1.1" viewBox="-5.0 -10.0 110.0 135.0">
 <path d="m38.52 98.441c1.457 0.10938 2.4258-0.94922 2.1211-2.3984-0.52734-2.8516-2.7305-4.582-5.2305-5.7812 0.10156-0.98047-0.14844-1.9648-0.70703-2.7734-2.4414-3.6602-6.3672-1.6523-8.9805-7.2539-1.3984-3.125-2.0977-6.3438-1.5039-9.8008 0.98438-5.4688 3.1992-11.227 7.8281-14.602 4.3672-3.0234 9.4766-4.5781 14.559-5.9414 8.4609-2.1758 17.625 0.74609 23.938 6.6523 0.98438 0.94922 2.1055 1.7617 3.1562 2.6445 9.8008 7.7422 13.156 27.199 3.5156 36.223v0.007813c-0.23828 0.28125-0.24609 0.69141-0.015625 0.98047 0.44141 0.68359 1.2734 0.30859 1.7305-0.14453 3.2695-3.1055 4.9258-7.4375 5.6016-11.816 1.1992-8.375-2.1055-16.477-4.7695-24.254v0.003906c0.16406-0.10938 0.33984-0.19531 0.52344-0.26172 1.3047-0.26172 2.1055-1.1484 2.7695-2.1992 6.0938-9.1367 5.875-20.664 2.8008-30.852-1.1719-4.5625-3.5352-8-8.5391-8.4727 0.57812-0.97656 0.98047-1.9062 0.87109-2.9766-0.17969-1.7383-0.74219-3.3047-2.0391-4.5312-0.64844-0.61719-1.3164-1.2148-2-1.8008-5.625-4.6445-3.1055-8.6953-7.9492-7.2383-0.60156 0.12109-0.96875 0.42969-1.0547 1.0664-0.64453 5.1992-2.9844 11.105-8.4609 12.75-5.875 1.8281-12.93-0.96094-15.367-6.7461-0.60156-1.4453-1.0469-2.9492-1.5586-4.4297-0.33594-1.332-0.85156-2.6523-2.4883-2.4727-1.6367 0.17969-3.5078 0.125-3.9336 2.1016-0.34766 1.7773-1.1992 3.3984-3.0195 4-2.8008 0.9375-5.1992 2.7734-6.0703 5.6602-0.93359 2.707-0.3125 4.8438 1.6836 6.9336-3.7891 1.8008-5.6992 4.7539-7.3281 8.4688-3.2656 7.4414-4.1992 15.582-5.9141 23.461-0.76172 3.8008-1.4844 7.5859-1.7305 11.457-1.4922 16.957 9.3906 34.207 27.562 34.336zm31.145-76.387c5.1367-2.3711 11.137-3.3633 13.812 2.8516 1.3633 3.2852 2.2305 6.7539 2.5742 10.293 0.98047 7.2656 0.039063 14.672-3.9102 20.953h-0.003906c-0.74219 1.2891-1.9688 2.2266-3.4102 2.6016-1.9375 0.46875-3.7891-0.64844-5.2266-1.8281-5.6172-5.5547-12.535-9.0508-20.523-9.3516-5.125-0.097657-10 1.7266-14.781 3.3281-1.2969 0.41406-2.6016 0.97656-4 0.83594-1.9688-0.17578-1.668-2.1172-0.6875-3.2695 1.2773-1.4805 2.3984-3.2539 4.332-3.9375 1.9883-0.76562 4-1.5078 6.0352-2.1562 1.8594-1.0664 3.957-1.1992 6-1.5156 7.4688-1.0781 15.246-0.36328 22.121 2.8633 1.4922 0.70312 2.8633 1.6953 4.2852 2.5352 1.0312 0.52344 1.8242-0.71484 0.94141-1.4414-0.51953-0.41406-1.0234-0.73047-1.5547-1.1602 2.625-2.8633 3.5391-7.6797 0.14844-11.34-3.3633-3.6055-6.543-4.5469-6.1523-10.262zm-28.789 0.84766c0.54688 5.3984 4.3281 10.578 10.105 10.801 5.2969 0.34375 9.0234-1.8242 12.027-6.0938 0.42969-0.73438 0.98438-1.5703 0.92188-2.4609-0.28906-1.1836-1.3477-0.33203-1.625 0.38281-1.4922 2.9766-4.4883 5.8438-7.8672 6.293-6.1797 1.3516-11.148-2.7148-11.852-8.8789 3.4844-0.39844 5.3203-1.9531 5.8633-5.4727v-0.003906c3.2227 0.89062 6.6445 0.75 9.7812-0.40234 1.5703 4.7539 4.9375 6.457 9.7773 5.3828 0.18359 6.8008 3.1992 6.8711 6.957 11.281 2.2578 2.6758 1.3398 7.2695-1.125 8.9336-10.891-5.3359-23.895-4.5195-34.988-0.18359-1.0781 0.41016-2.0703 0.94141-3.1016 1.4297-4.8008 2.0625-8.1133-2.8906-7.0703-6.875 0.67578-3.5586 2.9766-6.3125 5.3281-8.9336 1.5703-1.7578 2.043-3.8789 2.293-6.1758zm-27.398 33.652c2.6797-11.578 3.8008-38.668 21.215-35-0.18359 3.7891-2.4531 5.7617-4.6797 8.4531-3.4102 4.3594-4.9844 10.434-0.73047 14.82 0.55859 0.77734 0.65625 1.6406 0.49219 2.5586-0.51953 2.8984-1.1719 5.7539-2.375 8.4688-0.60156 1.375-1.2148 2.7695-1.5742 4.2148-0.64062 2.5547-1.957 4.8516-2.6211 7.3984-2.0156 7.2344 0.023437 17.648 8.4609 19.398 1.1758 0.35547 2 1.5117 2.0312 2.8633-0.60156-0.066407-1.1797-0.17578-1.7773-0.22266-0.30078-0.019531-0.60156 0.0625-0.6875 0.39844-0.15234 0.77734 0.85938 0.83203 1.375 1.0312 2.4961 0.75391 5.1367 2.0586 6.0859 4.6602l-0.003906 0.003906c0.1875 0.38281 0.21875 0.82031 0.089844 1.2266-8.2266 0.35547-16.086-4.043-20.672-10.812-6.1055-8.5273-6.625-19.496-4.6328-29.461z"/>
 <path d="m48.762 9.2109c1.2539 0.64844 2.8008 1.0508 4.1484 1.3711 1.6172-0.13672 2.6289-1.4883 3.75-2.4844 0.33984-0.52344-0.058594-1.5391-0.84766-1.2578-1.2852 0.32422-2.0859 2.3281-3.457 1.8125-0.71875-0.25-1.4688-0.41797-2.1992-0.60156-0.56641-0.13672-1.4297-0.39844-1.6797 0.32812-0.11719 0.3125 0.003907 0.66016 0.28516 0.83203z"/>
 <path d="m63.586 78.316c2.2891-1.9609 4.6641-4 5.8008-6.8672 1.75-3.3008 2-8.0469-1.1367-10.637-2.3711-1.8711-5.7891-2.707-8.625-1.3828-2.6133 1.1992-4.4258 3.2344-6.2734 5.3672-3.1992-3.4688-6.6016-7.2852-11.812-5.625-1.9492 0.64844-3.7891 1.6953-4.7383 3.6133-0.58594 1.1367-0.78516 2.3516-0.88281 3.5898-0.10938 1.3438 0.37109 2.5625 0.82422 3.8008 0.54687 1.4766 1.1602 2.9336 2.1836 4.125 1.4805 1.6016 3 3.2539 4.8008 4.5117 3.0586 2.4102 6.2305 4.7422 9.6289 6.6406 3.5508-2.2539 7.0703-4.375 10.23-7.1367z"/>
<text x="0.0" y="117.5" font-size="5.0" font-weight="bold" font-family="Arbeit Regular, Helvetica, Arial-Unicode, Arial, Sans-serif" fill="#000000">Created by Maxicons</text><text x="0.0" y="122.5" font-size="5.0" font-weight="bold" font-family="Arbeit Regular, Helvetica, Arial-Unicode, Arial, Sans-serif" fill="#000000">from Noun Project</text></svg>