<svg xmlns="http://www.w3.org/2000/svg" version="1.1" viewBox="-5.0 -10.0 110.0 135.0">
 <path d="m76.961 52.672c2.3008 3.5195 3.3594 7.6211 3.2305 12.531-0.46094 17.379-14.078 30.988-31.02 30.988s-31.02-13.922-31.02-31.02v-1.5391c0.23047-3.8711 1.4688-7.3906 3.6797-10.539 2.6094-3.7109 6.6992-6.4219 11.531-7.6094 4.4297-1.1016 5.6289-4.5703 5.6406-4.6094 0.23047-0.69141 0.98047-1.0586 1.6719-0.83984 0.69141 0.23047 1.0703 0.98047 0.83984 1.6719-0.070313 0.19922-1.6797 4.8906-7.5117 6.3281-4.2109 1.0391-7.7617 3.3789-10 6.5703-1.9297 2.7383-3.0117 5.8008-3.2109 9.1016v1.4609c0 15.66 12.738 28.391 28.391 28.391 15.648 0 27.969-12.48 28.379-28.422 0.10938-4.3594-0.80078-7.9688-2.8008-11.02-0.39844-0.60938-0.23047-1.4297 0.37891-1.8281 0.60938-0.39844 1.4297-0.23047 1.8281 0.37891zm-13.48-3.1328c0.71875 0.089844 1.3711-0.42969 1.4609-1.1484s-0.42969-1.3789-1.1484-1.4688c-0.46875-0.050781-11.359-1.1289-17.578 16.191-3.75-4.0586-7.3281-7.25-12.352-7.3906-0.76953-0.03125-1.3398 0.55078-1.3594 1.2812-0.019531 0.73047 0.55078 1.3281 1.2812 1.3594 4.7617 0.12891 8.1406 3.9102 12.43 8.6797 1.1797 1.3086 2.3984 2.6719 3.7188 4.0391 1.6992 1.75 3.4492 3.1211 5.2109 4.0898 0.19922 0.10938 0.42188 0.16016 0.62891 0.16016 0.46875 0 0.92187-0.25 1.1602-0.69141 0.35156-0.64062 0.12109-1.4414-0.51953-1.7891-1.5312-0.83984-3.0703-2.0508-4.5781-3.6094-1.2695-1.3086-2.4492-2.6211-3.6016-3.8984 5.3906-16.578 14.801-15.84 15.25-15.801zm10.02-17.59c4.6094 0 8.3594 3.75 8.3594 8.3594s-3.75 8.3594-8.3594 8.3594-8.3594-3.75-8.3594-8.3594 3.75-8.3594 8.3594-8.3594zm-5.7188 8.3594c0 3.1484 2.5703 5.7188 5.7188 5.7188s5.7188-2.5703 5.7188-5.7188c0-3.1484-2.5703-5.7188-5.7188-5.7188s-5.7188 2.5703-5.7188 5.7188zm-40.43 1.9102c4.0117-6.6094 4.1484-18 4.1602-18.121-0.078125-0.69141-0.12891-1.3906-0.12891-2.1016 0-10.031 8.1602-18.191 18.191-18.191s18.191 8.1602 18.191 18.191-8.1602 18.191-18.191 18.191c-6.8711 0-12.871-3.8281-15.961-9.4688-0.55859 4.0117-1.6914 9.0586-4 12.871-0.25 0.41016-0.67969 0.64062-1.1289 0.64062-0.23047 0-0.46875-0.058594-0.67969-0.19141-0.62109-0.37891-0.82031-1.1914-0.44141-1.8086zm6.6602-20.219c0 0.14062 0.019531 0.26953 0.019531 0.41016 1.2188-0.46875 1.5703-1.0117 1.5703-1.0195 0.30078-0.67188 1.0703-0.92969 1.7305-0.62891 0.66016 0.30078 0.94141 1.1094 0.64062 1.7812-0.14062 0.30078-0.92188 1.6992-3.6484 2.5508 1.4414 7.1016 7.7188 12.461 15.238 12.461 8.1094 0 14.781-6.2383 15.48-14.172-1.7695 0.26953-3.4688 0.41016-5.0391 0.41016-12.07 0-18.219-7.0117-18.512-7.3516-0.46875-0.55078-0.41016-1.3906 0.14844-1.8594 0.55078-0.46875 1.3789-0.41016 1.8594 0.14062 0.30859 0.35156 7.3984 8.3203 21.551 6-0.64844-7.9805-7.3398-14.281-15.488-14.281-8.5781 0-15.551 6.9805-15.551 15.551z"/>
<text x="0.0" y="117.5" font-size="5.0" font-weight="bold" font-family="Arbeit Regular, Helvetica, Arial-Unicode, Arial, Sans-serif" fill="#000000">Created by Fahir Babacan</text><text x="0.0" y="122.5" font-size="5.0" font-weight="bold" font-family="Arbeit Regular, Helvetica, Arial-Unicode, Arial, Sans-serif" fill="#000000">from Noun Project</text></svg>