<svg width="64" height="93" viewBox="0 0 64 93" fill="none" xmlns="http://www.w3.org/2000/svg">
<path d="M58.8095 48.8668C61.1103 52.3863 62.1689 56.4879 62.04 61.3978C61.5791 78.7768 47.962 92.3858 31.02 92.3858C14.078 92.3858 0 78.4638 0 61.3658V59.8267C0.23047 55.9556 1.4688 52.4361 3.6797 49.2877C6.2891 45.5768 10.3789 42.8658 15.2107 41.6783C19.6404 40.5767 20.8396 37.108 20.8513 37.0689C21.0818 36.3775 21.8318 36.0103 22.5232 36.2291C23.2146 36.4595 23.5935 37.2095 23.363 37.901C23.2927 38.1002 21.6833 42.7916 15.8513 44.2291C11.6404 45.2682 8.08964 47.608 5.85134 50.7994C3.92164 53.5377 2.83964 56.6002 2.64044 59.901V61.3619C2.64044 77.0219 15.3784 89.7529 31.0314 89.7529C46.6794 89.7529 59.0004 77.2729 59.4104 61.3309C59.5198 56.9715 58.6097 53.3621 56.6096 50.3109C56.2112 49.7015 56.3792 48.8812 56.9886 48.4828C57.5979 48.0843 58.4182 48.2523 58.8166 48.8617L58.8095 48.8668ZM45.3295 45.734C46.0482 45.8238 46.7006 45.3043 46.7904 44.5856C46.8802 43.8669 46.3607 43.2067 45.642 43.1168C45.1732 43.066 34.283 41.9879 28.064 59.3078C24.314 55.2492 20.7359 52.0578 15.712 51.9172C14.9425 51.886 14.3722 52.468 14.3526 53.1984C14.3331 53.9289 14.9034 54.5265 15.6338 54.5578C20.3955 54.6867 23.7744 58.468 28.0638 63.2375C29.2435 64.5461 30.4622 65.9094 31.7826 67.2766C33.4818 69.0266 35.2318 70.3977 36.9935 71.3664C37.1927 71.4758 37.4154 71.5266 37.6224 71.5266C38.0912 71.5266 38.5443 71.2766 38.7826 70.8352C39.1342 70.1945 38.9037 69.3938 38.2631 69.0461C36.7319 68.2062 35.1928 66.9953 33.685 65.4367C32.4155 64.1281 31.2358 62.8156 30.0834 61.5383C35.474 44.9603 44.8844 45.6983 45.3334 45.7373L45.3295 45.734ZM55.3495 28.144C59.9589 28.144 63.7089 31.894 63.7089 36.5034C63.7089 41.1128 59.9589 44.8628 55.3495 44.8628C50.7401 44.8628 46.9901 41.1128 46.9901 36.5034C46.9901 31.894 50.7401 28.144 55.3495 28.144ZM49.6307 36.5034C49.6307 39.6518 52.201 42.2222 55.3495 42.2222C58.498 42.2222 61.0683 39.6519 61.0683 36.5034C61.0683 33.355 58.498 30.7846 55.3495 30.7846C52.201 30.7846 49.6307 33.3549 49.6307 36.5034ZM9.2007 38.4136C13.2124 31.8042 13.3491 20.4136 13.3609 20.2926C13.2828 19.6012 13.232 18.902 13.232 18.191C13.232 8.16 21.3922 0 31.423 0C41.4538 0 49.614 8.1602 49.614 18.191C49.614 28.2218 41.4538 36.382 31.423 36.382C24.5519 36.382 18.552 32.5539 15.462 26.9132C14.9034 30.9249 13.7706 35.9718 11.462 39.7842C11.212 40.1944 10.7823 40.4248 10.3331 40.4248C10.1026 40.4248 9.86434 40.3662 9.6534 40.2334C9.03231 39.8545 8.83309 39.042 9.21199 38.4248L9.2007 38.4136ZM15.8609 18.1946C15.8609 18.3352 15.8804 18.4641 15.8804 18.6048C17.0992 18.136 17.4507 17.5931 17.4507 17.5853C17.7515 16.9134 18.521 16.6556 19.1812 16.9564C19.8414 17.2571 20.1226 18.0657 19.8218 18.7375C19.6812 19.0383 18.9 20.4367 16.1735 21.2883C17.6149 28.3899 23.8922 33.7494 31.4114 33.7494C39.5208 33.7494 46.1925 27.511 46.8915 19.5773C45.122 19.8469 43.4227 19.9875 41.8524 19.9875C29.7824 19.9875 23.6334 12.9758 23.3404 12.6359C22.8716 12.0851 22.9302 11.2453 23.4888 10.7765C24.0396 10.3078 24.8677 10.3663 25.3482 10.9171C25.6568 11.2687 32.7466 19.2374 46.8992 16.9171C46.2507 8.93663 39.5594 2.63613 31.4112 2.63613C22.8331 2.63613 15.8602 9.61663 15.8602 18.1871L15.8609 18.1946Z" fill="black"/>
</svg>
